<?xml version="1.0" standalone="yes"?>
<svg xmlns="http://www.w3.org/2000/svg" width="480" height="429">
<path style="fill:#fefefe; stroke:none;" d="M0 0L0 429L480 429L480 0L0 0z"/>
<path style="fill:#89b341; stroke:none;" d="M192 2C173.572 36.9869 152.297 70.6387 132.719 105C127.103 114.856 110.837 133.68 112 145L113 145C112.303 141.514 126.055 143 131 143L177 143C180.083 143 190.667 144.75 193 143C195.163 141.377 196.613 135.377 198 133C204.429 121.98 210.656 110.876 217 100C219.955 94.9344 231.268 73.3169 234 74L209.424 31L192 2z"/>
<path style="fill:#354f2d; stroke:none;" d="M193 2L195 7L196 7L193 2z"/>
<path style="fill:#c9171c; stroke:none;" d="M194 2C197.89 15.2229 207.937 28.1122 214.858 40C227.776 62.1892 239.66 84.9372 252.799 107C258.221 116.104 265.032 136.413 274.213 141.821C279.369 144.858 289.19 143 295 143C312.97 143 336.793 147.086 354 142C338.639 106.352 314.481 72.6783 295.15 39L280.15 13C278.284 9.7298 276.325 4.23682 272.671 2.60339C266.592 -0.114319 255.609 2 249 2L194 2z"/>
<path style="fill:#89b341; stroke:none;" d="M274 3L275 4L274 3z"/>
<path style="fill:#354f2d; stroke:none;" d="M196 8L197 9L196 8z"/>
<path style="fill:#89b341; stroke:none;" d="M277 8L278 9L277 8z"/>
<path style="fill:#354f2d; stroke:none;" d="M197.333 9.66666L197.667 10.3333L197.333 9.66666z"/>
<path style="fill:#89b341; stroke:none;" d="M278 10L279 11L278 10z"/>
<path style="fill:#354f2d; stroke:none;" d="M198.333 11.6667L198.667 12.3333L198.333 11.6667M199 13L200 14L199 13M200 15L201 16L200 15z"/>
<path style="fill:#89b341; stroke:none;" d="M281 15L282 16L281 15z"/>
<path style="fill:#354f2d; stroke:none;" d="M201.333 16.6667L201.667 17.3333L201.333 16.6667z"/>
<path style="fill:#89b341; stroke:none;" d="M282 17L283 18L282 17z"/>
<path style="fill:#354f2d; stroke:none;" d="M202 18L203 19L202 18M203 20L204 21L203 20M204 22L205 23L204 22z"/>
<path style="fill:#89b341; stroke:none;" d="M285 22L286 23L285 22z"/>
<path style="fill:#354f2d; stroke:none;" d="M205.333 23.6667L205.667 24.3333L205.333 23.6667z"/>
<path style="fill:#89b341; stroke:none;" d="M286 24L287 25L286 24z"/>
<path style="fill:#354f2d; stroke:none;" d="M206 25L207 26L206 25M207 27L208 28L207 27z"/>
<path style="fill:#89b341; stroke:none;" d="M288 27L289 28L288 27z"/>
<path style="fill:#354f2d; stroke:none;" d="M208 29L209 30L208 29z"/>
<path style="fill:#89b341; stroke:none;" d="M289 29L290 30L289 29z"/>
<path style="fill:#354f2d; stroke:none;" d="M209.333 30.6667L209.667 31.3333L209.333 30.6667z"/>
<path style="fill:#89b341; stroke:none;" d="M290 31L291 32L290 31z"/>
<path style="fill:#354f2d; stroke:none;" d="M210 32L211 33L210 32M211 34L212 35L211 34z"/>
<path style="fill:#89b341; stroke:none;" d="M292 34L293 35L292 34z"/>
<path style="fill:#354f2d; stroke:none;" d="M212 36L213 37L212 36z"/>
<path style="fill:#89b341; stroke:none;" d="M293 36L294 37L293 36z"/>
<path style="fill:#354f2d; stroke:none;" d="M213 37L214 38L213 37M214 39L215 40L214 39M215.333 40.6667L215.667 41.3333L215.333 40.6667z"/>
<path style="fill:#89b341; stroke:none;" d="M296 41L297 42L296 41z"/>
<path style="fill:#354f2d; stroke:none;" d="M216 43L217 44L216 43z"/>
<path style="fill:#89b341; stroke:none;" d="M297 43L298 44L297 43z"/>
<path style="fill:#354f2d; stroke:none;" d="M217 44L218 45L217 44M218 46L219 47L218 46z"/>
<path style="fill:#89b341; stroke:none;" d="M299 46L300 47L299 46z"/>
<path style="fill:#354f2d; stroke:none;" d="M219 48L220 49L219 48z"/>
<path style="fill:#89b341; stroke:none;" d="M300 48L301 49L300 48z"/>
<path style="fill:#354f2d; stroke:none;" d="M220.333 49.6667L220.667 50.3333L220.333 49.6667z"/>
<path style="fill:#89b341; stroke:none;" d="M301 50L302 51L301 50z"/>
<path style="fill:#354f2d; stroke:none;" d="M221 51L222 52L221 51M222 53L223 54L222 53z"/>
<path style="fill:#89b341; stroke:none;" d="M303 53L304 54L303 53z"/>
<path style="fill:#354f2d; stroke:none;" d="M223.333 54.6667L223.667 55.3333L223.333 54.6667z"/>
<path style="fill:#89b341; stroke:none;" d="M304 55L305 56L304 55z"/>
<path style="fill:#354f2d; stroke:none;" d="M224.333 56.6667L224.667 57.3333L224.333 56.6667M225 58L226 59L225 58M226 60L227 61L226 60z"/>
<path style="fill:#89b341; stroke:none;" d="M307 60L308 61L307 60z"/>
<path style="fill:#354f2d; stroke:none;" d="M227.333 61.6667L227.667 62.3333L227.333 61.6667z"/>
<path style="fill:#89b341; stroke:none;" d="M308 62L309 63L308 62z"/>
<path style="fill:#354f2d; stroke:none;" d="M228.333 63.6667L228.667 64.3333L228.333 63.6667M229 65L230 66L229 65M230 67L231 68L230 67z"/>
<path style="fill:#89b341; stroke:none;" d="M311 67L312 68L311 67z"/>
<path style="fill:#354f2d; stroke:none;" d="M231.333 68.6667L231.667 69.3333L231.333 68.6667z"/>
<path style="fill:#89b341; stroke:none;" d="M312 69L313 70L312 69z"/>
<path style="fill:#354f2d; stroke:none;" d="M232 70L233 71L232 70z"/>
<path style="fill:#89b341; stroke:none;" d="M314 72L315 73L314 72z"/>
<path style="fill:#fefefe; stroke:none;" d="M232 73L193 143L273 143L247.281 97L232 73z"/>
<path style="fill:#89b341; stroke:none;" d="M315 74L316 75L315 74M235 76L236 77L235 76M316 76L317 77L316 76M236 78L237 79L236 78M318 79L319 80L318 79M237 80L238 81L237 80M319 81L320 82L319 81M239 83L240 84L239 83M320 83L321 84L320 83M240 85L241 86L240 85M322 86L323 87L322 86M323 88L324 89L323 88M243 90L244 91L243 90M244 92L245 93L244 92M326 93L327 94L326 93M327 95L328 96L327 95M247 97L248 98L247 97M329 98L330 99L329 98M248 99L249 100L248 99M330 100L331 101L330 100M251 104L252 105L251 104M333 105L334 106L333 105M252 106L253 107L252 106M334 107L335 108L334 107M254 109L255 110L254 109M255 111L256 112L255 111M337 112L338 113L337 112M256 113L257 114L256 113M338 114L339 115L338 114M258 116L259 117L258 116M259 118L260 119L259 118M341 119L342 120L341 119M342 121L343 122L342 121M262 123L263 124L262 123M263 125L264 126L263 125M345 126L346 127L345 126M265 128L266 129L265 128M346 128L347 129L346 128M266 130L267 131L266 130M348 131L349 132L348 131M267 132L268 133L267 132M349 133L350 134L349 133M269 135L270 136L269 135M350 135L351 136L350 135M270 137L271 138L270 137M352 138L353 139L352 138M353 140L354 141L353 140M273 142L274 143L273 142z"/>
<path style="fill:#354f2d; stroke:none;" d="M274 142C279.883 167.651 305.058 187.91 313 213C318.794 208.037 322.143 199.549 325.989 193C334.698 178.171 350.748 158.864 354 142L314 143L274 142z"/>
<path style="fill:#89b341; stroke:none;" d="M354.333 142.667L354.667 143.333L354.333 142.667z"/>
<path style="fill:#354f2d; stroke:none;" d="M112 143L151 212L152 212C161.198 188.012 178.526 164.834 192 143L112 143z"/>
<path style="fill:#049de9; stroke:none;" d="M152 213L313 213C309.655 195.653 292.868 175.228 283.799 160C281.057 155.395 277.801 145.893 272.671 143.603C267.747 141.405 259.326 143 254 143L212 143C206.359 143 197.168 141.267 192.093 144.028C186.489 147.077 183.461 155.737 180.34 161.004C174.093 171.548 168.397 182.454 162.02 192.91C158.212 199.154 153.16 205.666 152 213z"/>
<path style="fill:#89b341; stroke:none;" d="M113 146L114 147L113 146M114 148L115 149L114 148M351 148L352 149L351 148M115 150L116 151L115 150M350 150L351 151L350 150M116 151L117 152L116 151M117 153L118 154L117 153M348 153L349 154L348 153M118 155L119 156L118 155M347 155L348 156L347 155M119 156L120 157L119 156M346 157L347 158L346 157M120 158L121 159L120 158M121 160L122 161L121 160M344 160L345 161L344 160M122 162L123 163L122 162M343 162L344 163L343 162M123 163L124 164L123 163M342 164L343 165L342 164M124 165L125 166L124 165M125 167L126 168L125 167M340 167L341 168L340 167M126 169L127 170L126 169M339 169L340 170L339 169M127 170L128 171L127 170M128 172L129 173L128 172M129 174L130 175L129 174M336 174L337 175L336 174z"/>
<path style="fill:#049de9; stroke:none;" d="M130 175L131 176L130 175z"/>
<path style="fill:#89b341; stroke:none;" d="M335 176L336 177L335 176M131 177L132 178L131 177M132 179L133 180L132 179M333 179L334 180L333 179M133 181L134 182L133 181M332 181L333 182L332 181M134 182L135 183L134 182M331 183L332 184L331 183M135 184L136 185L135 184M136 186L137 187L136 186M329 186L330 187L329 186M137 188L138 189L137 188M328 188L329 189L328 188M138 189L139 190L138 189M139 191L140 192L139 191M140 193L141 194L140 193M325 193L326 194L325 193M141 195L142 196L141 195M324 195L325 196L324 195M142 196L143 197L142 196M143 198L144 199L143 198M322 198L323 199L322 198M144 200L145 201L144 200M321 200L322 201L321 200M145 201L146 202L145 201M320 202L321 203L320 202M146 203L147 204L146 203M147 205L148 206L147 205M318 205L319 206L318 205M148 207L149 208L148 207M317 207L318 208L317 207M149 208L150 209L149 208M316 209L317 210L316 209M150 210L151 211L150 210M151 212L152 213L151 212M314 212L315 213L314 212M37 238L37 239L48 239L37 238z"/>
<path style="fill:#354f2d; stroke:none;" d="M36 239C28.3724 271.187 6.8301 301.294 2 334L13 334C14.4145 327.889 16.8892 315.904 21.6489 311.603C24.0656 309.42 28.0019 310.001 31 310C38.2016 309.997 56.9349 306.678 62.49 311.603C67.2515 315.825 69.5991 327.945 71 334L84 334L49 239L36 239z"/>
<path style="fill:#89b341; stroke:none;" d="M35 241L36 242L35 241M49 241L50 242L49 241M50 243L51 244L50 243M34 244L35 245L34 244M33 246L34 247L33 246M51 246L52 247L51 246M32 249L33 250L32 249M52 249L53 250L52 249M42 251L41 253L43 253L42 251M53 251L54 252L53 251M31 252L32 253L31 252z"/>
<path style="fill:#fefefe; stroke:none;" d="M41 253L25 302L60 302L43 253L41 253z"/>
<path style="fill:#89b341; stroke:none;" d="M54 254L55 255L54 254M30 255L31 256L30 255M43.3333 255.667L43.6667 256.333L43.3333 255.667M40 256L41 257L40 256M29 257L30 258L29 257M55 257L56 258L55 257M39 259L40 260L39 259M44 259L45 260L44 259M56 259L57 260L56 259M28 260L29 261L28 260M38 262L39 263L38 262M45 262L46 263L45 262M57 262L58 263L57 262M120.667 262.333L121.333 262.667L120.667 262.333z"/>
<path style="fill:#354f2d; stroke:none;" d="M104 279L103 279L104 264L94 264L94 334L104 334C104 314.195 97.9566 273.08 127 273C127.052 270.489 128.383 265.76 126.883 263.607C125.254 261.27 121.178 262.547 119 263.171C111.185 265.409 106.2 271.38 104 279z"/>
<path style="fill:#89b341; stroke:none;" d="M127 262L128 263L127 262M156 262L156 263L166 263L156 262M230 262L230 263L239 263L230 262M308 262L308 263L311 263L308 262z"/>
<path style="fill:#354f2d; stroke:none;" d="M289 278L288 278L289 264L278 264L278 334L289 334C289 318.21 284.964 296.046 293.479 282.001C298.466 273.774 311.399 266.178 319.442 275.225C323.984 280.333 323 287.692 323 294L323 334L334 334L334 294C334 286.328 334.673 277.914 330.633 271.015C321.359 255.178 293.996 262.356 289 278z"/>
<path style="fill:#89b341; stroke:none;" d="M315 262L315 263L318 263L315 262M381 262L381 263L384 263L381 262z"/>
<path style="fill:#354f2d; stroke:none;" d="M362 278L361 278L362 264L351 264L351 314L352.028 332.397L362 334C362 318.202 357.992 295.921 366.969 282C372.15 273.967 384.476 266.472 392.606 275.225C397.127 280.092 396.998 287.799 397 294L397 334L407 334L407 293C407 286.093 407.9 278.339 404.558 272.001C395.445 254.718 368.06 262.359 362 278z"/>
<path style="fill:#89b341; stroke:none;" d="M388 262L388 263L392 263L388 262M446 262L446 263L456 263L446 262M27 263L28 264L27 263M100 263L101 264L100 263M103 263L104 264L103 263M117 263L118 264L117 263M151 263L152 264L151 263z"/>
<path style="fill:#354f2d; stroke:none;" d="M140 311C130.134 315.864 132.668 326.242 140 332C126.622 338.945 123.437 357.296 137.001 366.03C155.788 378.128 203.098 367.341 192.891 338C187.585 322.747 168.833 325.17 156 324.996C152.162 324.944 143.636 323.975 144.971 318.079C146.628 310.758 160.616 314.355 166 313.384C186.026 309.774 196.654 288.618 183 272L195 272L195 264C173.716 264 134.598 254.985 130.885 286C130.412 289.954 130.477 294.15 131.634 298C133.162 303.082 137.05 306.758 140 311z"/>
<path style="fill:#89b341; stroke:none;" d="M173 263L173 264L179 264L173 263M190 263L191 264L190 263M192 263L193 264L192 263M225 263L226 264L225 263z"/>
<path style="fill:#354f2d; stroke:none;" d="M226 263.518C186.328 271.982 194.927 342.847 239 334.532C279.905 326.815 271.563 253.797 226 263.518z"/>
<path style="fill:#89b341; stroke:none;" d="M243 263L244 264L243 263M279.667 263.333L280.333 263.667L279.667 263.333M304 263L305 264L304 263M321 263L322 264L321 263M358 263L359 264L358 263M377 263L378 264L377 263M394 263L395 264L394 263M442 263L443 264L442 263z"/>
<path style="fill:#354f2d; stroke:none;" d="M476 331L475 322C452.002 329.481 431.078 325.393 431 297L478 297C478 290.88 478.394 284.856 476.3 279C470.046 261.505 445.508 257.615 432.004 269.213C409.396 288.629 418.483 334.842 451 334.999C459.85 335.042 467.595 333.734 476 331z"/>
<path style="fill:#89b341; stroke:none;" d="M459.667 263.333L460.333 263.667L459.667 263.333M46 264L47 265L46 264M104 264L104 267L105 267L104 264M148 264L149 265L148 264M195 264L195 272L196 272L195 264M222 264L223 265L222 264M246 264L247 265L246 264M301 264L302 265L301 264M374 264L375 265L374 264M397 264L398 265L397 264M439 264L440 265L439 264M462 264L463 265L462 264M26 265L27 266L26 265M37 265L38 266L37 265M58 265L59 266L58 265M113 265L114 266L113 265M145 265L146 266L145 265M219 265L220 266L219 265M249 265L250 266L249 265M299 265L300 266L299 265M325 265L326 266L325 265M437 265L438 266L437 265M127 266L127 273L128 273L127 266M217 266L218 267L217 266M251 266L252 267L251 266M288 266L288 273L289 273L288 266M400 266L401 267L400 266M435 266L436 267L435 266M466 266L467 267L466 266M36.3333 267.667L36.6667 268.333L36.3333 267.667M47 267L48 268L47 267M59.3333 267.667L59.6667 268.333L59.3333 267.667M110 267L111 268L110 267M142 267L143 268L142 267M252 267L253 268L252 267M296 267L297 268L296 267M369 267L370 268L369 267M401 267L402 268L401 267M468 267L469 268L468 267M25 268L26 269L25 268M109 268L110 269L109 268M214 268L215 269L214 268M368 268L369 269L368 268M402 268L403 269L402 268M432 268L433 269L432 268M469 268L470 269L469 268M139 269L140 270L139 269M213 269L214 270L213 269M255 269L256 270L255 269M367 269L368 270L367 269M431 269L432 270L431 269M470 269L471 270L470 269M35 270L36 271L35 270M48 270L49 271L48 270M60 270L61 271L60 270M138 270L139 271L138 270M256 270L257 271L256 270M330 270L331 271L330 270M366 270L367 271L366 270M430 270L431 271L430 270M471 270L472 271L471 270M24 271L25 272L24 271M137 271L138 272L137 271M154 271L155 272L154 271z"/>
<path style="fill:#fefefe; stroke:none;" d="M155 271.529C142.579 274.4 136.353 290.879 145.533 300.66C150.553 306.008 159.296 306.651 166 304.956C188.412 299.289 177.635 266.299 155 271.529z"/>
<path style="fill:#89b341; stroke:none;" d="M165.667 271.333L166.333 271.667L165.667 271.333M230 271L230 272L237 272L230 271M257 271L258 272L257 271M306 271L306 272L314 272L306 271M365 271L366 272L365 271M380 271L380 272L387 272L380 271M404 271L405 272L404 271M429 271L430 272L429 271M444.667 271.333L445.333 271.667L444.667 271.333z"/>
<path style="fill:#fefefe; stroke:none;" d="M432 288L467 288C465.888 263.713 437.602 268.689 432 288z"/>
<path style="fill:#89b341; stroke:none;" d="M455.667 271.333L456.333 271.667L455.667 271.333M472 271L473 272L472 271M106 272L107 273L106 272M136 272L137 273L136 272M151 272L152 273L151 272M169 272L170 273L169 272M183 272L184 273L183 272M226 272L227 273L226 272z"/>
<path style="fill:#fefefe; stroke:none;" d="M227 272.638C201.571 279.988 209.12 333.886 239 325.058C264.367 317.563 257.572 263.801 227 272.638z"/>
<path style="fill:#89b341; stroke:none;" d="M240 272L241 273L240 272M291 272L292 273L291 272M303 272L304 273L303 272M316 272L317 273L316 272M331 272L332 273L331 272M389 272L390 273L389 272M428 272L429 273L428 272M442 272L443 273L442 272M458 272L459 273L458 272M23 273L24 274L23 273M34 273L35 274L34 273M49 273L50 274L49 273M61 273L62 274L61 273M118 273L119 274L118 273M149 273L150 274L149 273M171 273L172 274L171 273M184 273L185 274L184 273M209 273L210 274L209 273M224 273L225 274L224 273M242 273L243 274L242 273M290 273L291 274L290 273M301 273L302 274L301 273M318 273L319 274L318 273M361 273L361 276L362 276L361 273M391 273L392 274L391 273M405 273L406 274L405 273M427 273L428 274L427 273M440 273L441 274L440 273M460 273L461 274L460 273M105 274L106 275L105 274M115 274L116 275L115 274M172 274L173 275L172 274M208 274L209 275L208 274M222 274L223 275L222 274M244 274L245 275L244 274M259 274L260 275L259 274M319 274L320 275L319 274M332 274L333 275L332 274M363 274L364 275L363 274M373 274L374 275L373 274M392 274L393 275L392 274M439 274L440 275L439 274M461 274L462 275L461 274M474 274L475 275L474 274M50 275L51 276L50 275M103 275L103 279L104 279L103 275M134 275L135 276L134 275M146 275L147 276L146 275M289 275L290 276L289 275M298 275L299 276L298 275M393 275L394 276L393 275M438 275L439 276L438 275M462 275L463 276L462 275M22 276L23 277L22 276M33 276L34 277L33 276M62 276L63 277L62 276M145 276L146 277L145 276M186 276L187 277L186 276M297 276L298 277L297 276z"/>
<path style="fill:#fefefe; stroke:none;" d="M361 276L362 277L361 276z"/>
<path style="fill:#89b341; stroke:none;" d="M406.333 276.667L406.667 277.333L406.333 276.667M425 276L426 277L425 276M437 276L438 277L437 276M463 276L464 277L463 276M475 276L476 277L475 276M175 277L176 278L175 277M206 277L207 278L206 277M261 277L262 278L261 277M288 277L289 278L288 277M296 277L297 278L296 277M321 277L322 278L321 277M361 277L362 278L361 277M436 277L437 278L436 277M32 278L33 279L32 278M51 278L52 279L51 278M63 278L64 279L63 278M132 278L133 279L132 278M187 278L188 279L187 278M295 278L296 279L295 278M333.333 278.667L333.667 279.333L333.333 278.667M424 278L425 279L424 278M21 279L22 280L21 279M143 279L144 280L143 279M249 279L250 280L249 279M395 279L396 280L395 279M465 279L466 280L465 279M476 279L477 280L476 279M109 280L110 281L109 280M188 280L189 281L188 280M216 280L217 281L216 280M262 280L263 281L262 280M322.333 280.667L322.667 281.333L322.333 280.667M367 280L368 281L367 280M423 280L424 281L423 280M434 280L435 281L434 280M20 281L21 282L20 281M31 281L32 282L31 281M52 281L53 282L52 281M64 281L65 282L64 281M131 281L132 282L131 281M142 281L143 282L142 281M177 281L178 282L177 281M204 281L205 282L204 281M293 281L294 282L293 281M108 282L109 283L108 282M215 282L216 283L215 282M263.333 282.667L263.667 283.333L263.333 282.667M433 282L434 283L433 282M466 282L467 283L466 282M477 282L478 283L477 282M53 283L54 284L53 283M203 283L204 284L203 283M251 283L252 284L251 283M292 283L293 284L292 283M422 283L423 284L422 283M19 284L20 285L19 284M30 284L31 285L30 284M65 284L66 285L65 284M107.333 284.667L107.667 285.333L107.333 284.667M141.333 284.667L141.667 285.333L141.333 284.667M178 284L178 293L179 293L178 284M189 284L189 291L190 291L189 284M214 284L215 285L214 284M365 284L366 285L365 284M396 284L396 334L397 334C397 319.951 401.409 296.89 396 284M130 285L130 289L131 289L130 285M252.333 285.667L252.667 286.333L252.333 285.667M291 285L292 286L291 285M432.333 285.667L432.667 286.333L432.333 285.667M54 286L55 287L54 286M66 286L67 287L66 286M202 286L203 287L202 286M213.333 286.667L213.667 287.333L213.333 286.667M264.333 286.667L264.667 287.333L264.333 286.667M364 286L365 287L364 286M421.333 286.667L421.667 287.333L421.333 286.667M18 287L19 288L18 287M29 287L30 288L29 287M106.333 287.667L106.667 288.333L106.333 287.667M290 288L291 289L290 288M432 288L432 289L467 289L432 288M478 288L478 295L479 295L478 288M17 289L18 290L17 289M28 289L29 290L28 289M55 289L56 290L55 289M67 289L68 290L67 289M253.333 289.667L253.667 290.333L253.333 289.667M363 289L364 290L363 289M201 290L202 291L201 290M212 290L212 293L213 293L212 290M130 291L130 295L131 295L130 291M141.333 291.667L141.667 292.333L141.333 291.667M420 291L420 294L421 294L420 291M16 292L17 293L16 292M27 292L28 293L27 292M56 292L57 293L56 292M68 292L69 293L68 292M105.333 292.667L105.667 293.333L105.333 292.667M289.333 292.667L289.667 293.333L289.333 292.667M57 294L58 295L57 294M69 294L70 295L69 294M265 294L265 301L266 301L265 294M362 294L362 297L363 297L362 294M15 295L16 296L15 295M26 295L27 296L26 295M177 295L178 296L177 295M188 295L189 296L188 295M142 296L143 297L142 296M25 297L26 298L25 297M58 297L59 298L58 297M70 297L71 298L70 297M176 297L177 298L176 297M200 297L200 301L201 301L200 297M14 298L15 299L14 298M131 298L132 299L131 298M143 298L144 299L143 298M187 298L188 299L187 298M144 299L145 300L144 299M175 299L176 300L175 299M13 300L14 301L13 300M24.3333 300.667L24.6667 301.333L24.3333 300.667M59 300L60 301L59 300M71 300L72 301L71 300M104 300L104 334L105 334L104 300M132 300L133 301L132 300M174 300L175 301L174 300M186 300L187 301L186 300M173 301L174 302L173 301M431 301L431 306L432 306L431 301M133 302L134 303L133 302M147 302L148 303L147 302M12 303L13 304L12 303M170 303L171 304L170 303M184 303L185 304L184 303M134 304L135 305L134 304M151 304L152 305L151 304M168 304L169 305L168 304M183 304L184 305L183 304M73 305L74 306L73 305M135 305L136 306L135 305M154.667 305.333L155.333 305.667L154.667 305.333M163.667 305.333L164.333 305.667L163.667 305.333M212.333 305.667L212.667 306.333L212.333 305.667M253.333 305.667L253.667 306.333L253.333 305.667M420 305L420 309L421 309L420 305M11 306L12 307L11 306M136 306L137 307L136 306M264.333 306.667L264.667 307.333L264.333 306.667M137 307L138 308L137 307M180 307L181 308L180 307M10 308L11 309L10 308M74 308L75 309L74 308M138 308L139 309L138 308M179 308L180 309L179 308M201 308L201 311L202 311L201 308M177 309L178 310L177 309M432.333 309.667L432.667 310.333L432.333 309.667M21 310L21 311L63 311C52.0122 306.389 32.9573 310 21 310M139 310L140 311L139 310M175 310L176 311L175 310M213 310L214 311L213 310M252 310L253 311L252 310M9 311L10 312L9 311M63 311L64 312L63 311M75 311L76 312L75 311M173 311L174 312L173 311M263 311L264 312L263 311M20 312L21 313L20 312M170 312L171 313L170 312M421.333 312.667L421.667 313.333L421.333 312.667M76 313L77 314L76 313M148 313L149 314L148 313M151.667 313.333L152.333 313.667L151.667 313.333M165.667 313.333L166.333 313.667L165.667 313.333M202.333 313.667L202.667 314.333L202.333 313.667M214 313L215 314L214 313M251 313L252 314L251 313M433 313L434 314L433 313M8 314L9 315L8 314M19 314L20 315L19 314M64 314L65 315L64 314M134 315L135 316L134 315M145 315L146 316L145 315M215 315L216 316L215 315M250 315L251 316L250 315M434 315L435 316L434 315M7 316L8 317L7 316M77 316L78 317L77 316M261 316L262 317L261 316M422 316L423 317L422 316M18 317L19 318L18 317M65 317L66 318L65 317M133.333 317.667L133.667 318.333L133.333 317.667M144.333 317.667L144.667 318.333L144.333 317.667M203 317L204 318L203 317M216 317L217 318L216 317M435 317L436 318L435 317M248 318L249 319L248 318M260 318L261 319L260 318M423 318L424 319L423 318M6 319L7 320L6 319M78 319L79 320L78 319M204 319L205 320L204 319M17 320L18 321L17 320M66 320L67 321L66 320M144 320L145 321L144 320M79 321L80 322L79 321M205 321L206 322L205 321M245 321L246 322L245 321M258 321L259 322L258 321M5 322L6 323L5 322M67 322L68 323L67 322M145 322L146 323L145 322M221 322L222 323L221 322M244 322L245 323L244 322M425 322L426 323L425 322M440 322L441 323L440 322M473 322L474 323L473 322M16 323L17 324L16 323M222 323L223 324L222 323M441 323L442 324L441 323M470 323L471 324L470 323M80 324L81 325L80 324M133 324L134 325L133 324M149.667 324.333L150.333 324.667L149.667 324.333M207 324L208 325L207 324M224 324L225 325L224 324M426 324L427 325L426 324M443 324L444 325L443 324M467 324L468 325L467 324M15.3333 325.667L15.6667 326.333L15.3333 325.667M68 325L69 326L68 325M175 325L175 326L178 326L175 325M227.667 325.333L228.333 325.667L227.667 325.333M237.667 325.333L238.333 325.667L237.667 325.333M255 325L256 326L255 325M427 325L428 326L427 325M446.667 325.333L447.333 325.667L446.667 325.333M462.667 325.333L463.333 325.667L462.667 325.333M475 325L475 329L476 329L475 325M180 326L181 327L180 326M254 326L255 327L254 326M428 326L429 327L428 326M454 326L455 327L454 326M3 327L4 328L3 327M81 327L82 328L81 327M183 327L184 328L183 327M253 327L254 328L253 327M429 327L430 328L429 327M14 328L15 329L14 328M69 328L70 329L69 328M135 328L136 329L135 328M185 328L186 329L185 328M430 328L431 329L430 328M82 329L83 330L82 329M136 329L137 330L136 329M212 329L213 330L212 329M431 329L432 330L431 329M2 330L3 331L2 330M188 330L189 331L188 330M213 330L214 331L213 330M249 330L250 331L249 330M13 331L14 332L13 331M70 331L71 332L70 331M139 331L140 332L139 331M189 331L190 332L189 331M215 331L216 332L215 331M247 331L248 332L247 331M434 331L435 332L434 331M474 331L475 332L474 331M83 332L84 333L83 332M138 332L139 333L138 332M217 332L218 333L217 332M245 332L246 333L245 332M436 332L437 333L436 332M471.667 332.333L472.333 332.667L471.667 332.333M1 333L2 334L1 333M136 333L137 334L136 333M219 333L220 334L219 333M243 333L244 334L243 333M351 333L352 334L351 333M439 333L440 334L439 333M468 333L469 334L468 333M135 334L136 335L135 334M148 334L148 335L171 335L148 334M191 334L192 335L191 334M223 334L224 335L223 334M239 334L240 335L239 334M442.667 334.333L443.333 334.667L442.667 334.333M462 334L462 335L465 335L462 334M134 335L135 336L134 335M146 335L145 337L146 335z"/>
<path style="fill:#fefefe; stroke:none;" d="M147.015 335.858C138.283 339.489 136.295 352.483 144.105 358.03C151.846 363.528 164.563 363.008 173 359.518C181.598 355.961 188.073 343.225 177.956 337.09C171.733 333.316 153.705 333.076 147.015 335.858z"/>
<path style="fill:#89b341; stroke:none;" d="M174.667 335.333L175.333 335.667L174.667 335.333M229 335L229 336L234 336L229 335M450 335L450 336L455 336L450 335M133 336L134 337L133 336M177 336L178 337L177 336M192 336L193 337L192 336M132 337L133 338L132 337M179 337L180 338L179 337M131 338L132 339L131 338M180 338L181 339L180 338M193.333 338.667L193.667 339.333L193.333 338.667M130 340L131 341L130 340M141 340L142 341L141 340M182 341L183 342L182 341M129 342L130 343L129 342M139 344L140 345L139 344M128 345L129 346L128 345M183.333 345.667L183.667 346.333L183.333 345.667M193 350L194 351L193 350M139 352L140 353L139 352M192 353L193 354L192 353M128.333 354.667L128.667 355.333L128.333 354.667M140 354L141 355L140 354M180 354L181 355L180 354M179 355L180 356L179 355M191 355L192 356L191 355M178 356L179 357L178 356M315.667 356.333L316.333 356.667L315.667 356.333M217 357C217 363.562 213.726 379.619 222 381L222 380L218 380L217 357z"/>
<path style="fill:#354f2d; stroke:none;" d="M218 357L218 380L222 380L222 365L223 365C225.144 372.289 228.758 379.732 237 380L237 357L233 357L233 372C228.45 366.033 226.435 357.28 218 357z"/>
<path style="fill:#89b341; stroke:none;" d="M232 357L232 372L233 372L232 357M251 357L252 358L251 357z"/>
<path style="fill:#354f2d; stroke:none;" d="M244 380L249 376L265 380C263.541 375.516 260.199 358.143 254.83 357.466C248.995 356.731 245.011 375.631 244 380z"/>
<path style="fill:#89b341; stroke:none;" d="M267 357L267 361L268 361L267 357z"/>
<path style="fill:#354f2d; stroke:none;" d="M268 357L268 361L274 361L274 380L278 380L278 361L284 361L284 357L268 357z"/>
<path style="fill:#89b341; stroke:none;" d="M284 357L284 361L285 361L284 357M291 357C291 363.562 287.726 379.619 296 381L296 380L292 380L291 357z"/>
<path style="fill:#354f2d; stroke:none;" d="M292 357L292 380L296 380L296 357L292 357z"/>
<path style="fill:#89b341; stroke:none;" d="M311 357L312 358L311 357z"/>
<path style="fill:#354f2d; stroke:none;" d="M312.015 357.653C299.828 361.57 303.868 384.476 317.999 380.192C331.482 376.105 326.968 352.846 312.015 357.653z"/>
<path style="fill:#89b341; stroke:none;" d="M320 357L321 358L320 357z"/>
<path style="fill:#354f2d; stroke:none;" d="M334 357L334 380L338 380L338 365L339 365C341.874 371.866 344.751 379.73 353 380L353 357L349 357L349 372C345.016 365.491 342.545 357.28 334 357z"/>
<path style="fill:#89b341; stroke:none;" d="M353 357L353 380L354 380L353 357z"/>
<path style="fill:#354f2d; stroke:none;" d="M368 357L361 380C366.688 379.048 371.825 372.429 376 380L381 380C379.874 372.481 376.748 357.676 368 357z"/>
<path style="fill:#89b341; stroke:none;" d="M373 357L374 358L373 357M388 357C388 361.86 385.532 376.747 389.603 379.972C392.223 382.047 397.855 381 401 381L401 380L389 380L388 357z"/>
<path style="fill:#354f2d; stroke:none;" d="M389 357L389 380L401 380L401 377C390.1 376.645 393 365.155 393 357L389 357z"/>
<path style="fill:#89b341; stroke:none;" d="M129 358L130 359L129 358M144 358L145 359L144 358M175 358L176 359L175 358M189 358L190 359L189 358M224 358L225 359L224 358M257 358L258 359L257 358M309 358L310 359L309 358M322 358L323 359L322 358M146 359L147 360L146 359M173 359L174 360L173 359M188 359L189 360L188 359M323 359L324 360L323 359M341 359L342 360L341 359M367 359L368 360L367 359M374 359L375 360L374 359M148 360L149 361L148 360M170 360L171 361L170 360M187 360L188 361L187 360M225 360L226 361L225 360M250 360L251 361L250 360M324 360L325 361L324 360M131 361L132 362L131 361M152.667 361.333L153.333 361.667L152.667 361.333M165.667 361.333L166.333 361.667L165.667 361.333M186 361L187 362L186 361M258 361L259 362L258 361M273 361L273 380L274 380L273 361M278 361L278 380L279 380L278 361M306 361L307 362L306 361z"/>
<path style="fill:#fefefe; stroke:none;" d="M313.148 362.047C307.129 365.311 309.998 379.454 317.852 374.968C323.781 371.581 320.49 358.066 313.148 362.047z"/>
<path style="fill:#89b341; stroke:none;" d="M342 361L343 362L342 361M366 361L367 362L366 361M132 362L133 363L132 362M311 362L312 363L311 362M319 362L320 363L319 362M325 362L326 363L325 362M375 362L376 363L375 362M133 363L134 364L133 363M249 363L250 364L249 363M305 363L306 364L305 363M370 363L371 364L370 363M134 364L135 365L134 364M182 364L183 365L182 364M254 364L253 366L254 364M259 364L260 365L259 364M344 364L345 365L344 364M365 364L366 365L365 364z"/>
<path style="fill:#fefefe; stroke:none;" d="M370 364L368 372L373 372L370 364z"/>
<path style="fill:#89b341; stroke:none;" d="M135 365L136 366L135 365M180 365L181 366L180 365M222 365L223 366L222 365M228 365L229 366L228 365z"/>
<path style="fill:#fefefe; stroke:none;" d="M254 365L252 372L257 372L254 365z"/>
<path style="fill:#89b341; stroke:none;" d="M338 365L338 380L334 380L334 381L339 381L338 365M371 365L372 366L371 365M376 365L377 366L376 365M137 366L138 367L137 366M178 366L179 367L178 366M248 366L249 367L248 366M260 366L261 367L260 366M304 366L304 373L305 373L304 366M309 366L309 372L310 372L309 366M326 366L326 371L327 371L326 366M345 366L346 367L345 366M369 366L370 367L369 366M139 367L140 368L139 367M176 367L177 368L176 367M223 367L224 368L223 367M229 367L230 368L229 367M255 367L256 368L255 367M321 367L321 371L322 371L321 367M364 367L365 368L364 367M141 368L142 369L141 368M173 368L174 369L173 368M247 368L248 369L247 368M252 368L253 369L252 368M340 368L341 369L340 368M372 368L373 369L372 368M377 368L378 369L377 368M144.667 369.333L145.333 369.667L144.667 369.333M169.667 369.333L170.333 369.667L169.667 369.333M224 369L225 370L224 369M261 369L262 370L261 369M368 369L369 370L368 369M149 370L149 371L152 371L149 370M163 370L163 371L166 371L163 370M251.333 370.667L251.667 371.333L251.333 370.667M256 370L257 371L256 370M341 370L342 371L341 370M363 370L364 371L363 370M246 371L247 372L246 371M348 371L349 372L348 371M373 371L374 372L373 371M378 371L379 372L378 371M226 372L227 373L226 372M262 372L263 373L262 372M320 373L321 374L320 373M325 373L326 374L325 373M343 373L344 374L343 373M362 373L363 374L362 373M379 373L380 374L379 373M227 374L228 375L227 374M245 374L246 375L245 374M319 374L320 375L319 374M263 375L264 376L263 375M305 375L306 376L305 375M318 375L319 376L318 375M344 375L345 376L344 375M228 376L229 377L228 376M249.333 376.667L249.667 377.333L249.333 376.667M313 376L313 377L317 377L313 376M361 376L362 377L361 376M380 376L381 377L380 376M394 376L394 377L401 377L394 376M244 377L245 378L244 377M345 377L346 378L345 377M375 377L376 378L375 377M259 378L260 379L259 378M264 378L265 379L264 378M307 378L308 379L307 378M365 378L366 379L365 378M230 379L231 380L230 379M248 379L249 380L248 379M320 379L321 380L320 379M360 379L365 381L365 380L360 379M381 379L377 380L377 381L381 379M231 380L231 381L237 381L231 380M244 380L244 381L248 381L244 380M260 380L260 381L265 381L260 380M274 380L274 381L278 381L274 380M311 380L312 381L311 380M317.667 380.333L318.333 380.667L317.667 380.333M347 380L347 381L353 381L347 380M217 427L218 427L218 404L222 404C214.238 401.456 217 422.28 217 427M242 404L242 405L249 405L242 404M263 403L263 404L274 404L263 403M294 403L295 404L294 403z"/>
<path style="fill:#354f2d; stroke:none;" d="M295.001 403.548C280.665 406.668 284.496 430.84 299.996 426.566C312.723 423.058 308.794 400.546 295.001 403.548z"/>
<path style="fill:#89b341; stroke:none;" d="M300 403L301 404L300 403M315 427L316 427L316 404L326 404C311.233 397.804 315 418.416 315 427M345 404L345 405L352 405L345 404M363 403L363 404L380 404L363 403M392.667 403.333L393.333 403.667L392.667 403.333z"/>
<path style="fill:#354f2d; stroke:none;" d="M394 403.573C379.978 406.298 382.92 430.036 397.996 426.605C410.596 423.738 408.111 400.831 394 403.573z"/>
<path style="fill:#89b341; stroke:none;" d="M398.667 403.333L399.333 403.667L398.667 403.333M414 403L414 404L424 404L414 403M434 403L434 404L439 404L434 403M447 404L447 405L453 405L447 404z"/>
<path style="fill:#354f2d; stroke:none;" d="M218 404L218 427L230 427L230 423L222 423L222 404L218 404M235 427L250 422C250.827 425.795 252.171 426.696 256 427C254.972 422.558 250.92 403.77 245.078 404.466C239.223 405.163 236.107 422.216 235 427M263 404L263 427C275.616 426.999 277.193 425.062 277.492 413.576C277.568 410.644 279.212 408.012 276.551 405.603C273.432 402.779 266.887 404 263 404z"/>
<path style="fill:#89b341; stroke:none;" d="M291 404L292 405L291 404z"/>
<path style="fill:#354f2d; stroke:none;" d="M316 404L316 427L320 427L320 418C323.729 422.368 325.88 426.535 332 427L325 416C329.75 414.59 333.352 408.446 327.772 405.028C324.637 403.107 319.527 404 316 404M338 427L343 427C345.279 420.801 351.721 420.801 354 427L359 427C358.249 422.637 353.739 402.261 347.259 404.662C342.275 406.509 339.31 422.199 338 427M363 404L363 407L369 407L369 427L374 427L374 407L380 407L380 404L363 404z"/>
<path style="fill:#89b341; stroke:none;" d="M390 404L391 405L390 404M401 404L402 405L401 404z"/>
<path style="fill:#354f2d; stroke:none;" d="M414 404L414 427L418 427L418 418C421.729 422.368 423.88 426.535 430 427L424 416C437.576 409.153 420.955 404 414 404z"/>
<path style="fill:#89b341; stroke:none;" d="M426 404L427 405L426 404z"/>
<path style="fill:#354f2d; stroke:none;" d="M434 404L441 427L445 427L452 404C446.594 404.88 444.902 408.945 444 414C441.227 409.25 440.058 404.482 434 404z"/>
<path style="fill:#89b341; stroke:none;" d="M277 405L278 406L277 405M304 405L305 406L304 405M329 405L330 406L329 405M427 405L428 406L427 405M434 405L435 406L434 405M439 405L440 406L439 405M305 406L306 407L305 406M428 406L429 407L428 406M446 406L447 407L446 406M451 406L452 407L451 406M241 407L242 408L241 407M249 407L250 408L249 407z"/>
<path style="fill:#fefefe; stroke:none;" d="M268 407L268 413L274 409L268 407z"/>
<path style="fill:#89b341; stroke:none;" d="M271 407L272 408L271 407M278 407L279 408L278 407M295 407L295 408L299 408L295 407M320 407L320 408L324 408L320 407M330 407L331 408L330 407M344 407L345 408L344 407M352 407L353 408L352 407M363 407L363 408L369 408L363 407M374 407L374 408L380 408L374 407M394 407L394 408L397 408L394 407M418 414L419 414L422 408C418.14 407.133 418.1 410.939 418 414M435 407L436 408L435 407M440 407L441 408L440 407M267 408L267 413L268 413L267 408M273 408L274 409L273 408M287 408L288 409L287 408M293 408L292 410L293 408z"/>
<path style="fill:#fefefe; stroke:none;" d="M294.228 409.032C288.411 412.464 291.526 425.578 298.892 421.928C305.972 418.42 301.862 404.529 294.228 409.032z"/>
<path style="fill:#89b341; stroke:none;" d="M300 408L301 409L300 408M306 408L307 409L306 408z"/>
<path style="fill:#fefefe; stroke:none;" d="M320 408L321 414C326.514 411.969 325.588 408.435 320 408z"/>
<path style="fill:#89b341; stroke:none;" d="M325 408L326 409L325 408z"/>
<path style="fill:#fefefe; stroke:none;" d="M392.434 409.029C386.669 412.95 391.584 426.933 398.682 421.253C403.925 417.057 399.706 404.081 392.434 409.029z"/>
<path style="fill:#89b341; stroke:none;" d="M405 408L406 409L405 408z"/>
<path style="fill:#fefefe; stroke:none;" d="M419 408L419 414C423.773 412.549 424.301 408.887 419 408z"/>
<path style="fill:#89b341; stroke:none;" d="M423 408L424 409L423 408M445 408L446 409L445 408M450 408L451 409L450 408M240 409L241 410L240 409M301 409L302 410L301 409M353 409L354 410L353 409M385 409L386 410L385 409M436 409L437 410L436 409M441 409L442 410L441 409M245 410L244 413L245 413L245 410M250 410L251 411L250 410M273.333 410.667L273.667 411.333L273.333 410.667M278 410L279 411L278 410M286 410L287 411L286 410M307.333 410.667L307.667 411.333L307.333 410.667M343 410L344 411L343 410M348 410L349 411L348 410M390 410L391 411L390 410M400 410L401 411L400 410M449 410L450 411L449 410z"/>
<path style="fill:#fefefe; stroke:none;" d="M245 411L243 418L248 418L245 411z"/>
<path style="fill:#89b341; stroke:none;" d="M291 411L292 412L291 411M302.333 411.667L302.667 412.333L302.333 411.667z"/>
<path style="fill:#fefefe; stroke:none;" d="M348 411L346 418L351 418L348 411z"/>
<path style="fill:#89b341; stroke:none;" d="M437 411L438 412L437 411M442 411L443 412L442 411M239 412L240 413L239 412M272 412L273 413L272 412M277 412L278 413L277 412M330 412L331 413L330 412M347 412L348 413L347 412M349 412L350 413L349 412M354 412L355 413L354 412M384 412L384 419L385 419L384 412M406 412L406 418L407 418L406 412M423 412L424 413L423 412M448 412L449 413L448 412M246 413L247 414L246 413M251 413L252 414L251 413M320 413L321 414L320 413M323 413L324 414L323 413M342 413L343 414L342 413M389 413L389 418L390 418L389 413M401 413L401 418L402 418L401 413M422 413L423 414L422 413M438 413L439 414L438 413M443 413L444 414L443 413M243 414L244 415L243 414M427 414L428 415L427 414M447 414L448 415L447 414M238 415L239 416L238 415M277 415L278 416L277 415M346 415L347 416L346 415M350 415L351 416L350 415M355 415L356 416L355 415M426 415L427 416L426 415M247 416L248 417L247 416M252 416L253 417L252 416M325 416L326 417L325 416M341 416L342 417L341 416M424 416L425 417L424 416M446 416L447 417L446 416M242 417L248 419L248 418L242 417M267 417L267 423L268 423L267 417z"/>
<path style="fill:#fefefe; stroke:none;" d="M268 417L268 423C271.582 422.432 272.943 421.492 274 418L268 417z"/>
<path style="fill:#89b341; stroke:none;" d="M272 417L273 418L272 417M237 418L238 419L237 418M253 418L254 419L253 418M302 418L303 419L302 418M307 418L308 419L307 418M320 418L321 419L320 418M326 418L327 419L326 418M346 418L346 419L351 419L346 418M356 418L357 419L356 418M418 418L418 427L419 427L418 418M291 419L292 420L291 419M321 419L322 420L321 419M340 419L341 420L340 419M425 419L426 420L425 419M445 419L445 427L446 427L445 419M286 420L287 421L286 420M301 420L302 421L301 420M322 420L323 421L322 420M390 420L391 421L390 420M405 420L406 421L405 420M420 420L421 421L420 420M236 421L237 422L236 421M254 421L255 422L254 421M273 421L274 422L273 421M300 421L301 422L300 421M306 421L307 422L306 421M328 421L329 422L328 421M339.333 421.667L339.667 422.333L339.333 421.667M357 421L358 422L357 421M385 421L386 422L385 421M391 421L392 422L391 421M399 421L400 422L399 421M249 422L250 423L249 422M272 422L273 423L272 422M278 422L279 423L278 422M294 422L295 423L294 422M299 422L300 423L299 422M323 422L324 423L323 422M329 422L330 423L329 422M352 422L353 423L352 422M392 422L393 423L392 422M397 422L398 423L397 422M404 422L405 423L404 422M427 422L428 423L427 422M240 423L241 424L240 423M324 423L325 424L324 423M358 423L359 424L358 423M386 423L387 424L386 423M422 423L423 424L422 423M428 423L429 424L428 423M235 424L236 425L235 424M255 424L256 425L255 424M277 424L278 425L277 424M288 424L289 425L288 424M338 424L339 425L338 424M343 424L344 425L343 424M353 424L354 425L353 424M387 424L388 425L387 424M250 425L251 426L250 425M325 425L326 426L325 425M331 425L332 426L331 425M388 425L389 426L388 425M401 425L402 426L401 425M239 426L240 427L239 426M273.667 426.333L274.333 426.667L273.667 426.333M291 426L292 427L291 426M326 426L327 427L326 426M359 426L360 427L359 426M390 426L391 427L390 426M399 426L400 427L399 426M424 426L425 427L424 426M430 426L431 427L430 426M295 427L295 428L298 428L295 427M393 427L393 428L397 428L393 427z"/>
</svg>
